<?xml version="1.0" encoding="UTF-8" standalone="no"?>
<svg
   viewBox="0 0 256 256"
   version="1.1"
   id="svg1"
   sodipodi:docname="croppie-favicon.svg"
   inkscape:version="1.4 (1:1.4+202410161351+e7c3feb100)"
   xmlns:inkscape="http://www.inkscape.org/namespaces/inkscape"
   xmlns:sodipodi="http://sodipodi.sourceforge.net/DTD/sodipodi-0.dtd"
   xmlns="http://www.w3.org/2000/svg"
   xmlns:svg="http://www.w3.org/2000/svg">
  <defs
     id="defs1" />
  <sodipodi:namedview
     id="namedview1"
     pagecolor="#ffffff"
     bordercolor="#666666"
     borderopacity="1.0"
     inkscape:showpageshadow="2"
     inkscape:pageopacity="0.0"
     inkscape:pagecheckerboard="0"
     inkscape:deskcolor="#d1d1d1"
     inkscape:zoom="7.109375"
     inkscape:cx="128"
     inkscape:cy="128"
     inkscape:window-width="3840"
     inkscape:window-height="2051"
     inkscape:window-x="2560"
     inkscape:window-y="36"
     inkscape:window-maximized="1"
     inkscape:current-layer="svg1" />
  <rect
     fill="none"
     height="256"
     width="256"
     id="rect1" />
  <path
     d="m 96,72 h 88 v 88 a 8,8 0 0 0 16,0 V 64 a 8,8 0 0 0 -8,-8 H 96 a 8,8 0 0 0 0,16 z"
     id="path2"
     style="fill:#e80000;fill-opacity:1" />
  <path
     d="m 240,192 a 8,8 0 0 1 -8,8 h -32 v 32 a 8,8 0 0 1 -16,0 V 200 H 64 a 8,8 0 0 1 -8,-8 V 72 H 24 A 8,8 0 0 1 24,56 H 56 V 24 a 8,8 0 0 1 16,0 v 160 h 160 a 8,8 0 0 1 8,8 z"
     id="path1"
     style="fill:#0975f3;fill-opacity:1" />
</svg>
